# xmcd CD database file
#
# Track frame offsets:
#	150
#	18681
#	33928
#	41833
#	54314
#	68150
#	81695
#	97621
#	113557
#	128432
#	143253
#	157782
#	172627
#	187732
#	201944
#	215778
#	230621
#	243262
#	256420
#	271771
#	283544
#	297618
#	311816
#	325998
#
# Disc length: 4498 seconds
#
# Revision: 0
# Processed by: cddbd v1.5.2PL0 Copyright (c) Steve Scherf et al.
# Submitted via: CDex 1.50beta10
#
DISCID=4b119018
DTITLE=Billie Holiday - The Complete Masters CD8
DYEAR=1944
DGENRE=Jazz
TTITLE0=I Love My Man (Billie's Blues)
TTITLE1=Do Nothin' Till You Hear From Me
TTITLE2=I'll Get By
TTITLE3=How Am I To Know?
TTITLE4=My Old Flame
TTITLE5=I'll Get By
TTITLE6=I Cover the Waterfront
TTITLE7=I'll Be Seeing You
TTITLE8=I'm Yours
TTITLE9=Embraceable You
TTITLE10=As Time Goes By
TTITLE11=He's Funny That Way
TTITLE12=Lover Come Back To Me
TTITLE13=I Love My Man (Billie's Blues)
TTITLE14=On the Sunny Side of the Street
TTITLE15=Lover Man
TTITLE16=(You Ain't Gonna Bother Me) No More
TTITLE17=That Ole Devil Called Love
TTITLE18=Don't Explain
TTITLE19=You Better Go Now
TTITLE20=What Is This Thing Called Love?
TTITLE21=Good Morning Heartache
TTITLE22=No Good Man
TTITLE23=Big Stuff
EXTD=YEAR: 1944
EXTT0=
EXTT1=
EXTT2=
EXTT3=
EXTT4=
EXTT5=
EXTT6=
EXTT7=
EXTT8=
EXTT9=
EXTT10=
EXTT11=
EXTT12=
EXTT13=
EXTT14=
EXTT15=
EXTT16=
EXTT17=
EXTT18=
EXTT19=
EXTT20=
EXTT21=
EXTT22=
EXTT23=
PLAYORDER=
